<svg data-v-423bf9ae="" xmlns="http://www.w3.org/2000/svg" viewBox="0 0 588 90" class="iconLeft"><!----><!----><!----><g data-v-423bf9ae="" id="e840d244-e994-4e85-888d-a5711f57a073" fill="white" transform="matrix(6.256517105873957,0,0,6.256517105873957,105.621448116446,-1.2669443554414812)"><path d="M2.66 3.00L2.66 10.40L4.80 10.40L4.80 12.05L0.70 12.05L0.70 3.00L2.66 3.00ZM10.71 6.93L10.71 6.93L10.71 10.35L10.71 10.35Q10.71 12.19 8.97 12.19L8.97 12.19L7.39 12.19L7.39 12.19Q5.66 12.19 5.66 10.35L5.66 10.35L5.66 6.93L5.66 6.93Q5.66 5.08 7.39 5.08L7.39 5.08L8.97 5.08L8.97 5.08Q10.71 5.08 10.71 6.93ZM8.83 10.74L8.83 10.74L8.83 6.52L8.83 6.52Q8.83 6.41 8.76 6.33L8.76 6.33L8.76 6.33Q8.68 6.24 8.57 6.24L8.57 6.24L7.80 6.24L7.80 6.24Q7.69 6.24 7.61 6.33L7.61 6.33L7.61 6.33Q7.53 6.41 7.53 6.52L7.53 6.52L7.53 10.74L7.53 10.74Q7.53 10.85 7.61 10.93L7.61 10.93L7.61 10.93Q7.69 11.02 7.80 11.02L7.80 11.02L8.57 11.02L8.57 11.02Q8.68 11.02 8.76 10.93L8.76 10.93L8.76 10.93Q8.83 10.85 8.83 10.74ZM17.04 6.93L17.04 6.93L17.04 10.35L17.04 10.35Q17.04 12.19 15.30 12.19L15.30 12.19L13.72 12.19L13.72 12.19Q11.98 12.19 11.98 10.35L11.98 10.35L11.98 6.93L11.98 6.93Q11.98 5.08 13.72 5.08L13.72 5.08L15.30 5.08L15.30 5.08Q17.04 5.08 17.04 6.93ZM15.16 10.74L15.16 10.74L15.16 6.52L15.16 6.52Q15.16 6.41 15.08 6.33L15.08 6.33L15.08 6.33Q15.01 6.24 14.90 6.24L14.90 6.24L14.13 6.24L14.13 6.24Q14.01 6.24 13.94 6.33L13.94 6.33L13.94 6.33Q13.86 6.41 13.86 6.52L13.86 6.52L13.86 10.74L13.86 10.74Q13.86 10.85 13.94 10.93L13.94 10.93L13.94 10.93Q14.01 11.02 14.13 11.02L14.13 11.02L14.90 11.02L14.90 11.02Q15.01 11.02 15.08 10.93L15.08 10.93L15.08 10.93Q15.16 10.85 15.16 10.74ZM21.84 5.22L23.69 5.22L22.29 8.43L23.91 12.05L22.04 12.05L20.75 9.21L20.19 9.21L20.19 12.05L18.31 12.05L18.31 3.00L20.19 3.00L20.19 7.67L20.82 7.67L21.84 5.22ZM29.75 6.93L29.75 6.93L29.75 10.35L29.75 10.35Q29.75 12.19 28.01 12.19L28.01 12.19L26.43 12.19L26.43 12.19Q24.70 12.19 24.70 10.35L24.70 10.35L24.70 6.93L24.70 6.93Q24.70 5.08 26.43 5.08L26.43 5.08L28.01 5.08L28.01 5.08Q29.75 5.08 29.75 6.93ZM27.87 10.74L27.87 10.74L27.87 6.52L27.87 6.52Q27.87 6.41 27.80 6.33L27.80 6.33L27.80 6.33Q27.72 6.24 27.61 6.24L27.61 6.24L26.84 6.24L26.84 6.24Q26.73 6.24 26.65 6.33L26.65 6.33L26.65 6.33Q26.57 6.41 26.57 6.52L26.57 6.52L26.57 10.74L26.57 10.74Q26.57 10.85 26.65 10.93L26.65 10.93L26.65 10.93Q26.73 11.02 26.84 11.02L26.84 11.02L27.61 11.02L27.61 11.02Q27.72 11.02 27.80 10.93L27.80 10.93L27.80 10.93Q27.87 10.85 27.87 10.74ZM34.20 10.57L34.20 5.22L36.08 5.22L36.08 12.05L34.37 12.05L34.37 11.70L34.37 11.70Q33.94 12.19 33.05 12.19L33.05 12.19L32.76 12.19L32.76 12.19Q31.02 12.19 31.02 10.35L31.02 10.35L31.02 5.22L32.90 5.22L32.90 10.57L32.90 10.57Q32.90 10.68 32.98 10.77L32.98 10.77L32.98 10.77Q33.05 10.85 33.17 10.85L33.17 10.85L33.94 10.85L33.94 10.85Q34.05 10.85 34.13 10.77L34.13 10.77L34.13 10.77Q34.20 10.68 34.20 10.57L34.20 10.57ZM39.84 10.98L39.84 10.98L40.40 10.98L40.40 12.19L39.09 12.19L39.09 12.19Q37.35 12.19 37.35 10.35L37.35 10.35L37.35 3.74L39.23 3.74L39.23 5.22L40.40 5.22L40.40 6.58L39.23 6.58L39.23 10.30L39.23 10.30Q39.23 10.70 39.38 10.84L39.38 10.84L39.38 10.84Q39.54 10.98 39.84 10.98ZM46.48 4.70L46.48 5.38L44.62 5.38L44.62 4.66L44.62 4.66Q44.62 4.55 44.54 4.47L44.54 4.47L44.54 4.47Q44.46 4.38 44.35 4.38L44.35 4.38L43.58 4.38L43.58 4.38Q43.47 4.38 43.39 4.47L43.39 4.47L43.39 4.47Q43.32 4.55 43.32 4.66L43.32 4.66L43.32 6.27L43.32 6.27Q43.32 6.38 43.39 6.47L43.39 6.47L43.39 6.47Q43.47 6.55 43.58 6.55L43.58 6.55L44.84 6.55L44.84 6.55Q46.58 6.58 46.58 8.40L46.58 8.40L46.58 10.35L46.58 10.35Q46.58 12.19 44.84 12.19L44.84 12.19L43.19 12.19L43.19 12.19Q41.45 12.19 41.45 10.35L41.45 10.35L41.45 9.41L43.32 9.41L43.32 10.42L43.32 10.42Q43.32 10.53 43.39 10.61L43.39 10.61L43.39 10.61Q43.47 10.70 43.58 10.70L43.58 10.70L44.45 10.70L44.45 10.70Q44.56 10.70 44.64 10.61L44.64 10.61L44.64 10.61Q44.72 10.53 44.72 10.42L44.72 10.42L44.72 8.64L44.72 8.64Q44.72 8.53 44.64 8.44L44.64 8.44L44.64 8.44Q44.56 8.36 44.45 8.36L44.45 8.36L43.19 8.36L43.19 8.36Q41.45 8.36 41.45 6.51L41.45 6.51L41.45 4.70L41.45 4.70Q41.45 2.86 43.19 2.86L43.19 2.86L44.74 2.86L44.74 2.86Q46.48 2.86 46.48 4.70L46.48 4.70ZM50.29 10.98L50.29 10.98L50.85 10.98L50.85 12.19L49.53 12.19L49.53 12.19Q47.80 12.19 47.80 10.35L47.80 10.35L47.80 3.74L49.67 3.74L49.67 5.22L50.85 5.22L50.85 6.58L49.67 6.58L49.67 10.30L49.67 10.30Q49.67 10.70 49.83 10.84L49.83 10.84L49.83 10.84Q49.98 10.98 50.29 10.98ZM55.30 5.73L55.30 5.22L56.88 5.22L56.88 12.05L55.30 12.05L55.30 11.55L55.30 11.55Q54.87 12.19 53.86 12.19L53.86 12.19L53.56 12.19L53.56 12.19Q51.83 12.19 51.83 10.35L51.83 10.35L51.83 6.93L51.83 6.93Q51.83 5.08 53.56 5.08L53.56 5.08L53.86 5.08L53.86 5.08Q54.87 5.08 55.30 5.73L55.30 5.73ZM55.01 10.57L55.01 10.57L55.01 6.71L55.01 6.71Q55.01 6.59 54.93 6.51L54.93 6.51L54.93 6.51Q54.85 6.43 54.74 6.43L54.74 6.43L53.97 6.43L53.97 6.43Q53.86 6.43 53.78 6.51L53.78 6.51L53.78 6.51Q53.70 6.59 53.70 6.71L53.70 6.71L53.70 10.57L53.70 10.57Q53.70 10.68 53.78 10.77L53.78 10.77L53.78 10.77Q53.86 10.85 53.97 10.85L53.97 10.85L54.74 10.85L54.74 10.85Q54.85 10.85 54.93 10.77L54.93 10.77L54.93 10.77Q55.01 10.68 55.01 10.57ZM60.65 10.98L60.65 10.98L61.21 10.98L61.21 12.19L59.89 12.19L59.89 12.19Q58.16 12.19 58.16 10.35L58.16 10.35L58.16 3.74L60.03 3.74L60.03 5.22L61.21 5.22L61.21 6.58L60.03 6.58L60.03 10.30L60.03 10.30Q60.03 10.70 60.19 10.84L60.19 10.84L60.19 10.84Q60.34 10.98 60.65 10.98ZM64.10 4.37L64.10 4.37L64.10 4.37Q63.80 4.66 63.38 4.66L63.38 4.66L63.38 4.66Q62.96 4.66 62.65 4.36L62.65 4.36L62.65 4.36Q62.34 4.06 62.34 3.63L62.34 3.63L62.34 3.63Q62.34 3.21 62.65 2.90L62.65 2.90L62.65 2.90Q62.96 2.60 63.38 2.60L63.38 2.60L63.38 2.60Q63.80 2.60 64.10 2.90L64.10 2.90L64.10 2.90Q64.40 3.21 64.40 3.64L64.40 3.64L64.40 3.64Q64.40 4.07 64.10 4.37ZM64.32 12.05L62.44 12.05L62.44 5.22L64.32 5.22L64.32 12.05ZM70.69 6.93L70.69 6.93L70.69 10.35L70.69 10.35Q70.69 12.19 68.95 12.19L68.95 12.19L67.37 12.19L67.37 12.19Q65.63 12.19 65.63 10.35L65.63 10.35L65.63 6.93L65.63 6.93Q65.63 5.08 67.37 5.08L67.37 5.08L68.95 5.08L68.95 5.08Q70.69 5.08 70.69 6.93ZM68.81 10.74L68.81 10.74L68.81 6.52L68.81 6.52Q68.81 6.41 68.73 6.33L68.73 6.33L68.73 6.33Q68.66 6.24 68.54 6.24L68.54 6.24L67.77 6.24L67.77 6.24Q67.66 6.24 67.59 6.33L67.59 6.33L67.59 6.33Q67.51 6.41 67.51 6.52L67.51 6.52L67.51 10.74L67.51 10.74Q67.51 10.85 67.59 10.93L67.59 10.93L67.59 10.93Q67.66 11.02 67.77 11.02L67.77 11.02L68.54 11.02L68.54 11.02Q68.66 11.02 68.73 10.93L68.73 10.93L68.73 10.93Q68.81 10.85 68.81 10.74ZM73.84 6.71L73.84 12.05L71.96 12.05L71.96 5.22L73.67 5.22L73.67 5.57L73.67 5.57Q74.10 5.08 74.98 5.08L74.98 5.08L75.28 5.08L75.28 5.08Q77.01 5.08 77.01 6.93L77.01 6.93L77.01 12.05L75.14 12.05L75.14 6.71L75.14 6.71Q75.14 6.59 75.06 6.51L75.06 6.51L75.06 6.51Q74.98 6.43 74.87 6.43L74.87 6.43L74.10 6.43L74.10 6.43Q73.99 6.43 73.91 6.51L73.91 6.51L73.91 6.51Q73.84 6.59 73.84 6.71L73.84 6.71Z"></path></g><!----><g data-v-423bf9ae="" id="b8b7e782-2297-4ae2-bc90-372892431b46" transform="matrix(1.000011105130918,0,0,1.000011105130918,-4.0005534130900955,-5.000055536753614)" stroke="none" fill="white"><path d="M49.834 9.001c22.607 0 41 18.392 41 40.999 0 22.607-18.393 41-41 41s-41-18.393-41-41 18.393-40.999 41-40.999m0-4c-24.854 0-45 20.146-45 44.999 0 24.854 20.146 45 45 45 24.853 0 45-20.146 45-45 0-24.853-20.147-44.999-45-44.999z"></path><path d="M49.834 45.001c-2.759 0-5 2.238-5 4.999 0 2.76 2.241 5 5 5s5-2.24 5-5a5.001 5.001 0 0 0-5-4.999zM49.834 78a5.001 5.001 0 0 0 0 10 5.001 5.001 0 0 0 0-10zM71.168 38.692c-2.207 0-4 1.791-4 4 0 2.208 1.793 4 4 4s4-1.792 4-4c0-2.209-1.793-4-4-4zM25.371 25.001a3.001 3.001 0 0 0 0 6 3.001 3.001 0 0 0 0-6z"></path><path d="M27.788 71.795s.519.483 1.489 1.391c.243.227.515.479.813.759l.969.74 1.122.863c.391.315.896.578 1.38.897 1.937 1.314 4.543 2.51 7.646 3.501 3.123.994 6.798 1.483 10.894 1.249 1.104.006 2.035-.209 3.062-.335 1.011-.09 2.054-.416 3.112-.658 2.113-.536 4.213-1.388 6.297-2.413 4.141-2.109 7.982-5.373 11.013-9.468.409-.491.745-1.036 1.078-1.585l1.025-1.643.866-1.748c.299-.581.589-1.169.797-1.794l.702-1.85c.227-.621.358-1.274.544-1.913.405-1.273.566-2.605.792-3.932.143-.66.131-1.339.187-2.013.033-.651.102-1.401.109-1.977l-.083-2.109-.042-1.057-.143-.995-.281-1.996c-.133-.666-.318-1.33-.475-1.996-.264-1.351-.82-2.615-1.252-3.92-1.089-2.515-2.336-5-4.034-7.166-.763-1.148-1.743-2.116-2.636-3.154-.464-.502-.992-.94-1.483-1.414-.502-.463-.984-.948-1.544-1.339-4.252-3.391-9.271-5.733-14.421-6.593-5.133-.918-10.322-.582-14.919.743-4.626 1.331-8.646 3.681-11.86 6.388-3.213 2.725-5.665 5.8-7.348 8.794-.442.736-.768 1.506-1.138 2.218-.173.362-.366.708-.514 1.066l-.403 1.065c-.255.699-.536 1.359-.739 2.01l-.508 1.886c-.373 1.184-.465 2.292-.643 3.238-.189.946-.227 1.765-.262 2.428-.079 1.329-.123 2.037-.123 2.037l.08-2.037c.021-.665.04-1.487.209-2.438.157-.951.226-2.068.573-3.265l.469-1.908c.19-.66.458-1.33.7-2.04l.383-1.083c.142-.364.328-.717.494-1.086.357-.727.67-1.512 1.101-2.266 1.635-3.065 4.05-6.239 7.262-9.088 3.214-2.83 7.271-5.328 11.999-6.802 4.733-1.473 10.045-1.938 15.401-1.104 5.37.778 10.671 3.098 15.215 6.563.596.4 1.115.896 1.653 1.371.528.485 1.093.937 1.594 1.455.965 1.068 2.019 2.072 2.853 3.264 1.841 2.251 3.227 4.848 4.439 7.499.493 1.373 1.108 2.71 1.426 4.141.183.708.394 1.406.552 2.124l.358 2.196.174 1.098.064 1.056.13 2.107c.014.828-.044 1.479-.064 2.226-.042.723-.02 1.451-.152 2.164-.208 1.43-.357 2.868-.759 4.25-.184.693-.315 1.4-.543 2.077l-.713 2.015c-.214.68-.511 1.323-.819 1.959l-.898 1.913-1.069 1.806c-.35.604-.704 1.202-1.133 1.746-3.189 4.521-7.305 8.176-11.797 10.594-2.26 1.18-4.554 2.165-6.872 2.81-1.168.299-2.28.669-3.477.813-1.164.176-2.365.428-3.394.441-4.383.35-8.585-.101-12.068-1.131-3.493-1.023-6.443-2.313-8.651-3.732-.56-.35-1.107-.624-1.589-.987-.484-.356-.938-.689-1.36-1.001l-1.164-.868c-.305-.272-.581-.52-.829-.74l-1.52-1.358 2.696-2.959z"></path><path d="M34.868 64.728l1.033.976.563.531.646.498c.461.36.979.787 1.676 1.194 1.307.902 3.071 1.722 5.174 2.411 2.121.69 4.604 1.037 7.413.895.781.006 1.392-.136 2.085-.217.677-.055 1.392-.272 2.113-.435 1.442-.356 2.877-.929 4.302-1.621 2.835-1.421 5.472-3.637 7.562-6.425 2.127-2.771 3.488-6.24 4.034-9.881.101-.452.097-.918.136-1.379.026-.439.074-.979.085-1.34l-.052-1.47-.025-.737-.094-.679-.185-1.36c-.087-.456-.214-.914-.318-1.372-.177-.93-.554-1.8-.847-2.698-.738-1.733-1.588-3.447-2.749-4.945-.521-.793-1.192-1.464-1.804-2.182-.316-.35-.681-.651-1.017-.98-.345-.32-.675-.658-1.059-.929-2.92-2.353-6.375-3.992-9.93-4.604-3.544-.654-7.143-.439-10.326.462-3.209.906-6.005 2.522-8.246 4.39-2.239 1.88-3.955 4.008-5.136 6.084-.31.511-.538 1.044-.799 1.539-.27.492-.468.992-.646 1.479-.18.485-.378.944-.521 1.396l-.36 1.311c-.264.824-.331 1.595-.459 2.253-.135.659-.163 1.229-.19 1.69L26.834 50l.049-1.42c.013-.464.023-1.037.138-1.701.106-.664.15-1.443.39-2.28l.321-1.333c.131-.461.315-.93.482-1.426.164-.499.35-1.012.605-1.518.248-.509.464-1.059.762-1.587 1.134-2.146 2.812-4.374 5.05-6.378 2.24-1.991 5.074-3.754 8.385-4.804a24.046 24.046 0 0 1 10.809-.822c3.776.531 7.512 2.148 10.724 4.574.42.28.786.628 1.168.96.373.34.773.656 1.127 1.021.685.749 1.429 1.455 2.021 2.292 1.304 1.583 2.291 3.409 3.153 5.278.354.967.79 1.911 1.021 2.92.131.5.283.991.396 1.5l.262 1.561.125.78.049.735.098 1.468c.011.616-.027 1.054-.039 1.59-.027.511-.012 1.026-.104 1.531-.471 4.055-1.877 7.987-4.164 11.183-2.249 3.214-5.159 5.82-8.345 7.55-1.602.846-3.23 1.552-4.877 2.018-.831.218-1.618.479-2.48.589-.833.132-1.709.311-2.414.323-3.101.258-6.108-.051-8.591-.777-2.493-.723-4.601-1.637-6.18-2.644-.813-.444-1.514-.968-2.122-1.422l-.84-.626-.58-.514-1.063-.942 2.698-2.951z"></path><path d="M41.989 57.71a647.368 647.368 0 0 0 .893.86l.323.251c.228.183.482.402.852.623.682.483 1.604.926 2.709 1.303 1.122.377 2.404.583 3.938.521.459.008.73-.07 1.099-.103.342-.018.733-.14 1.116-.215.77-.182 1.536-.478 2.304-.835 1.52-.745 2.949-1.91 4.092-3.396 1.16-1.479 1.918-3.337 2.239-5.305.08-.47.099-1.046.137-1.451l-.019-.831-.011-.415-.047-.36c-.069-.949-.361-1.989-.695-2.948-.75-1.914-1.975-3.679-3.57-4.987-1.587-1.313-3.479-2.238-5.439-2.601a12.734 12.734 0 0 0-5.728.188 12.57 12.57 0 0 0-4.626 2.393c-1.265 1.036-2.241 2.216-2.919 3.374-.659 1.165-1.118 2.26-1.347 3.204-.246.937-.366 1.699-.394 2.22l-.063.8.019-.803c-.003-.524.074-1.295.271-2.257.179-.969.58-2.107 1.191-3.343.63-1.228 1.568-2.508 2.833-3.667a13.354 13.354 0 0 1 4.764-2.808 13.818 13.818 0 0 1 6.21-.547c2.181.28 4.354 1.184 6.233 2.569 1.886 1.378 3.413 3.313 4.412 5.499.212.562.475 1.109.616 1.697l.243.874.164.925.079.464.033.417.065.829c.016.399-.007.628-.01.95-.015.3.002.603-.048.898-.245 2.382-1.047 4.703-2.366 6.605-1.301 1.912-3.003 3.469-4.873 4.521-.942.513-1.903.942-2.877 1.233-.495.133-.949.297-1.478.37-.494.082-1.061.2-1.441.21-1.806.18-3.625.013-5.105-.399-1.494-.408-2.761-.944-3.714-1.531a10.806 10.806 0 0 1-1.298-.848l-.519-.381-.332-.285-.609-.523 2.693-2.959z"></path><path d="M51.328 51.33l-30.77 30.765-2.828-2.829L48.5 48.501z"></path></g><!----></svg>